<svg width="28" height="28" viewBox="0 0 28 28" fill="none" xmlns="http://www.w3.org/2000/svg">
<path d="M22.8401 6.60999C22.3294 6.099 21.7229 5.69364 21.0555 5.41708C20.388 5.14052 19.6726 4.99817 18.9501 4.99817C18.2276 4.99817 17.5122 5.14052 16.8448 5.41708C16.1773 5.69364 15.5709 6.099 15.0601 6.60999L14.0001 7.66999L12.9401 6.60999C11.9084 5.5783 10.5092 4.9987 9.05012 4.9987C7.59109 4.9987 6.19181 5.5783 5.16012 6.60999C4.12843 7.64169 3.54883 9.04096 3.54883 10.5C3.54883 11.959 4.12843 13.3583 5.16012 14.39L6.22012 15.45L14.0001 23.23L21.7801 15.45L22.8401 14.39C23.3511 13.8792 23.7565 13.2728 24.033 12.6053C24.3096 11.9379 24.4519 11.2225 24.4519 10.5C24.4519 9.77751 24.3096 9.0621 24.033 8.39464C23.7565 7.72718 23.3511 7.12075 22.8401 6.60999V6.60999Z" stroke="#AFAFAF" stroke-width="1.5" stroke-linecap="round" stroke-linejoin="round"/>
</svg>
