<svg width="28" height="28" viewBox="0 0 28 28" fill="none" xmlns="http://www.w3.org/2000/svg">
<path d="M19.6667 7.33334L17.8004 4.89245C17.6112 4.645 17.3175 4.49985 17.006 4.49985H10.9944C10.6829 4.49985 10.3893 4.64498 10.2001 4.89239L8.33342 7.33334H5.16675C4.33832 7.33334 3.66675 8.00492 3.66675 8.83334V20.6667C3.66675 21.4951 4.33832 22.1667 5.16675 22.1667H22.8334C23.6618 22.1667 24.3334 21.4951 24.3334 20.6667V8.83334C24.3334 8.00492 23.6618 7.33334 22.8334 7.33334H19.6667Z" stroke="#AFAFAF" stroke-width="1.5" stroke-linecap="round" stroke-linejoin="round"/>
<path d="M14 18C16.2091 18 18 16.2091 18 14C18 11.7909 16.2091 10 14 10C11.7909 10 10 11.7909 10 14C10 16.2091 11.7909 18 14 18Z" stroke="#AFAFAF" stroke-width="1.5" stroke-linecap="round" stroke-linejoin="round"/>
</svg>
