<svg width="131" height="56" viewBox="0 0 131 56" fill="none" xmlns="http://www.w3.org/2000/svg">
<path d="M20.9513 38.8118H10.1998V8H3.05273V45.0588H26.7395C24.2998 43.4882 22.3013 41.3397 20.9513 38.8118Z" fill="#151515"/>
<path d="M105.146 23.6884V17.7061H126.904V22.8413L113.51 39.0943H127.275V45.0766H104.881V40.1002L118.487 23.6884H105.146Z" fill="#151515"/>
<path d="M90.163 16.8237C86.8277 16.8237 83.7571 18.0414 81.3218 20.1061V17.512H74.4395V22.9605C75.8865 25.3914 76.7203 28.2017 76.7203 31.1973C76.7203 34.1928 75.8865 37.0031 74.4395 39.434V56.0002H81.3747V42.3943C83.81 44.4061 86.8277 45.6237 90.163 45.6237C98.3159 45.6237 104.775 39.1649 104.775 31.2237C104.775 23.2826 98.3159 16.8237 90.163 16.8237ZM89.5806 39.5355C84.9747 39.5355 81.2689 35.8826 81.2689 31.2237C81.2689 26.5649 84.9747 22.859 89.5806 22.859C94.1865 22.859 97.8924 26.6178 97.8924 31.2237C97.8924 35.8296 94.1336 39.5355 89.5806 39.5355Z" fill="#151515"/>
<path d="M68.9694 20.0709C66.3709 18.0239 63.04 16.7974 59.4047 16.7974C54.7635 16.7974 50.5944 18.8356 47.8282 22.0297C47.8194 22.0209 47.8106 22.0121 47.8018 22.0033C45.6576 24.4959 44.365 27.6856 44.365 31.1621C44.365 31.1621 44.365 31.1841 44.365 31.1974C44.365 35.8033 40.765 39.4562 36.2121 39.4562C31.7121 39.4562 28.0591 35.8033 28.0591 31.1974C28.0591 26.5915 31.7121 22.9386 36.2121 22.9386C38.9915 22.9386 41.4135 24.3062 42.8782 26.415C43.5665 24.2003 44.7223 22.1753 46.2356 20.4503C43.5753 18.1739 40.0635 16.793 36.2121 16.793C27.9532 16.793 21.1768 23.2518 21.1768 31.193C21.1768 39.1341 27.9532 45.593 36.2121 45.593C36.49 45.593 36.7679 45.5841 37.0415 45.5709C37.1209 45.5709 37.2003 45.5577 37.2797 45.5533C37.4738 45.54 37.6635 45.5268 37.8532 45.5047C37.9503 45.4959 38.0518 45.4827 38.1488 45.4694C38.3209 45.4474 38.4885 45.4253 38.6562 45.3988C38.762 45.3812 38.8635 45.3636 38.965 45.3459C39.1282 45.315 39.2871 45.2841 39.4503 45.2533C39.5518 45.2312 39.6576 45.2091 39.7591 45.1871C39.9179 45.1518 40.0768 45.1121 40.2356 45.068C40.3326 45.0415 40.4341 45.015 40.5312 44.9886C40.6944 44.94 40.8532 44.8915 41.0121 44.8386C41.1003 44.8077 41.1929 44.7812 41.2812 44.7503C41.4576 44.6886 41.6297 44.6268 41.8018 44.5606C41.8723 44.5341 41.9429 44.5077 42.0135 44.4812C42.4988 44.2871 42.9665 44.0709 43.4253 43.8283C43.4915 43.793 43.5532 43.7577 43.6194 43.7224C43.7782 43.6341 43.9415 43.5459 44.0959 43.4533C44.1753 43.4047 44.2547 43.3562 44.3297 43.3077C44.4709 43.2238 44.6076 43.1356 44.7444 43.043C44.8282 42.99 44.9076 42.9327 44.9871 42.8753C45.115 42.7871 45.2429 42.6944 45.3709 42.6018C45.4503 42.5444 45.5297 42.4827 45.6091 42.4209C45.7326 42.3238 45.8562 42.2268 45.9753 42.1297C46.0503 42.068 46.1253 42.0062 46.2003 41.9444C46.3238 41.8386 46.4429 41.7327 46.5621 41.6224C46.6282 41.5606 46.6988 41.4988 46.765 41.4371C46.8929 41.3136 47.0209 41.19 47.1444 41.0621C47.1973 41.0091 47.2503 40.9606 47.2988 40.9077C47.4709 40.7268 47.6429 40.5415 47.8062 40.3474C49.9503 37.8591 51.2385 34.665 51.2385 31.1886C51.2385 26.5827 54.8915 22.9297 59.3915 22.9297C63.9444 22.9297 67.5444 26.5827 67.5444 31.1886C67.5444 35.7944 63.9444 39.4474 59.3915 39.4474C56.6297 39.4474 54.1944 38.0709 52.7209 35.9444C52.0326 38.1547 50.8768 40.1753 49.3679 41.8959C52.0371 44.19 55.5532 45.5886 59.3915 45.5886C67.7032 45.5886 74.4268 39.1297 74.4268 31.1886C74.4268 29.5694 74.1488 28.0209 73.6415 26.5738C72.737 24.0062 71.0959 21.7562 68.9606 20.0621L68.9694 20.0709Z" fill="#FF5A2D"/>
</svg>
