<svg width="104" height="55" viewBox="0 0 104 55" fill="none" xmlns="http://www.w3.org/2000/svg">
<path d="M93.3415 6.25996C88.2664 2.35064 81.7611 0.00842544 74.6611 0.00842544C65.5967 0.00842544 57.4542 3.90089 52.0517 10.0008C52.0345 9.98391 52.0172 9.96706 52 9.95021C47.8124 14.7105 45.2878 20.8019 45.2878 27.441C45.2878 27.441 45.2878 27.4832 45.2878 27.5084C45.2878 36.3044 38.2568 43.2805 29.3647 43.2805C20.576 43.2805 13.4416 36.3044 13.4416 27.5084C13.4416 18.7125 20.576 11.7364 29.3647 11.7364C34.793 11.7364 39.5234 14.3482 42.3841 18.3755C43.7282 14.146 45.9857 10.2788 48.9412 6.98453C43.7455 2.6371 36.8868 0 29.3647 0C13.2348 0 0 12.3346 0 27.5C0 42.6654 13.2348 55 29.3647 55C29.9075 55 30.4504 54.9832 30.9846 54.9579C31.1397 54.9579 31.2948 54.9326 31.4499 54.9242C31.829 54.8989 32.1995 54.8736 32.57 54.8315C32.7596 54.8146 32.9577 54.7894 33.1473 54.7641C33.4833 54.722 33.8108 54.6798 34.1382 54.6293C34.345 54.5956 34.5432 54.5619 34.7413 54.5282C35.0602 54.4692 35.3703 54.4102 35.6891 54.3513C35.8873 54.3091 36.0941 54.267 36.2923 54.2249C36.6025 54.1575 36.9127 54.0816 37.2229 53.9974C37.4124 53.9468 37.6106 53.8963 37.8002 53.8457C38.119 53.7531 38.4292 53.6604 38.7394 53.5593C38.9117 53.5003 39.0926 53.4498 39.265 53.3908C39.6096 53.2728 39.9457 53.1549 40.2817 53.0285C40.4196 52.9779 40.5574 52.9274 40.6953 52.8768C41.6431 52.5061 42.5564 52.0933 43.4525 51.6299C43.5818 51.5625 43.7024 51.4951 43.8316 51.4277C44.1418 51.2592 44.4606 51.0907 44.7622 50.9138C44.9173 50.8211 45.0724 50.7284 45.2189 50.6357C45.4946 50.4756 45.7617 50.3071 46.0288 50.1302C46.1925 50.0291 46.3476 49.9196 46.5027 49.8101C46.7526 49.6415 47.0025 49.4646 47.2524 49.2877C47.4075 49.1782 47.5625 49.0602 47.7176 48.9422C47.9589 48.7569 48.2002 48.5715 48.4328 48.3862C48.5793 48.2682 48.7258 48.1503 48.8722 48.0323C49.1135 47.8301 49.3461 47.6279 49.5788 47.4173C49.708 47.2993 49.8459 47.1814 49.9751 47.0634C50.225 46.8275 50.4749 46.5916 50.7162 46.3473C50.8196 46.2462 50.923 46.1535 51.0177 46.0524C51.3538 45.707 51.6898 45.3531 52.0086 44.9824C56.1962 40.2305 58.7122 34.1307 58.7122 27.4916C58.7122 18.6956 65.8466 11.7195 74.6353 11.7195C83.5274 11.7195 90.5584 18.6956 90.5584 27.4916C90.5584 36.2875 83.5274 43.2636 74.6353 43.2636C69.2414 43.2636 64.4852 40.635 61.6073 36.574C60.2631 40.795 58.0056 44.6538 55.0588 47.9396C60.2718 52.3208 67.139 54.9916 74.6353 54.9916C90.8686 54.9916 104 42.657 104 27.4916C104 24.3995 103.457 21.4422 102.466 18.6788C100.7 13.7753 97.4946 9.4784 93.3243 6.24311L93.3415 6.25996Z" fill="url(#paint0_linear_1074_1536)"/>
<defs>
<linearGradient id="paint0_linear_1074_1536" x1="52" y1="0" x2="79.859" y2="65.583" gradientUnits="userSpaceOnUse">
<stop stop-color="#FF5A2D"/>
<stop offset="1" stop-color="#FFBD7B"/>
</linearGradient>
</defs>
</svg>
