<svg width="66" height="28" viewBox="0 0 66 28" fill="none" xmlns="http://www.w3.org/2000/svg">
<path d="M10.9495 19.406H5.57377V4.00012H2.00024V22.5295H13.8436C12.6238 21.7442 11.6245 20.67 10.9495 19.406Z" fill="#151515"/>
<path d="M53.0465 11.8442V8.85303H63.9259V11.4207L57.2289 19.5471H64.1112V22.5383H52.9142V20.0501L59.7171 11.8442H53.0465Z" fill="#151515"/>
<path d="M45.5554 8.41187C43.8877 8.41187 42.3524 9.02069 41.1348 10.053V8.75598H37.6936V11.4802C38.4171 12.6957 38.834 14.1008 38.834 15.5986C38.834 17.0964 38.4171 18.5016 37.6936 19.717V28.0001H41.1613V21.1972C42.3789 22.203 43.8877 22.8119 45.5554 22.8119C49.6318 22.8119 52.8613 19.5825 52.8613 15.6119C52.8613 11.6413 49.6318 8.41187 45.5554 8.41187ZM45.2642 19.7677C42.9613 19.7677 41.1083 17.9413 41.1083 15.6119C41.1083 13.2825 42.9613 11.4295 45.2642 11.4295C47.5671 11.4295 49.4201 13.3089 49.4201 15.6119C49.4201 17.9148 47.5407 19.7677 45.2642 19.7677Z" fill="#151515"/>
<path d="M34.9584 10.0355C33.6592 9.01193 31.9937 8.39869 30.1761 8.39869C27.8555 8.39869 25.7709 9.41781 24.3878 11.0149C24.3834 11.0105 24.379 11.006 24.3746 11.0016C23.3025 12.248 22.6562 13.8428 22.6562 15.581C22.6562 15.581 22.6562 15.5921 22.6562 15.5987C22.6562 17.9016 20.8562 19.7281 18.5798 19.7281C16.3298 19.7281 14.5033 17.9016 14.5033 15.5987C14.5033 13.2957 16.3298 11.4693 18.5798 11.4693C19.9695 11.4693 21.1805 12.1531 21.9128 13.2075C22.257 12.1002 22.8349 11.0877 23.5915 10.2252C22.2614 9.08693 20.5055 8.39648 18.5798 8.39648C14.4503 8.39648 11.0621 11.6259 11.0621 15.5965C11.0621 19.5671 14.4503 22.7965 18.5798 22.7965C18.7187 22.7965 18.8577 22.7921 18.9945 22.7855C19.0342 22.7855 19.0739 22.7788 19.1136 22.7766C19.2106 22.77 19.3055 22.7634 19.4003 22.7524C19.4489 22.748 19.4996 22.7413 19.5481 22.7347C19.6342 22.7237 19.718 22.7127 19.8018 22.6994C19.8547 22.6906 19.9055 22.6818 19.9562 22.673C20.0378 22.6575 20.1172 22.6421 20.1989 22.6266C20.2496 22.6156 20.3025 22.6046 20.3533 22.5935C20.4327 22.5759 20.5121 22.556 20.5915 22.534C20.64 22.5207 20.6908 22.5075 20.7393 22.4943C20.8209 22.47 20.9003 22.4457 20.9797 22.4193C21.0239 22.4038 21.0702 22.3906 21.1143 22.3752C21.2025 22.3443 21.2886 22.3134 21.3746 22.2803C21.4099 22.2671 21.4452 22.2538 21.4805 22.2406C21.7231 22.1435 21.957 22.0355 22.1864 21.9141C22.2195 21.8965 22.2503 21.8788 22.2834 21.8612C22.3628 21.8171 22.4445 21.773 22.5217 21.7266C22.5614 21.7024 22.6011 21.6781 22.6386 21.6538C22.7092 21.6119 22.7775 21.5678 22.8459 21.5215C22.8878 21.495 22.9275 21.4663 22.9672 21.4377C23.0312 21.3935 23.0952 21.3472 23.1592 21.3009C23.1989 21.2722 23.2386 21.2413 23.2783 21.2105C23.34 21.1619 23.4018 21.1134 23.4614 21.0649C23.4989 21.034 23.5364 21.0031 23.5739 20.9722C23.6356 20.9193 23.6952 20.8663 23.7548 20.8112C23.7878 20.7803 23.8231 20.7494 23.8562 20.7185C23.9202 20.6568 23.9842 20.595 24.0459 20.531C24.0724 20.5046 24.0989 20.4803 24.1231 20.4538C24.2092 20.3634 24.2952 20.2707 24.3768 20.1737C25.4489 18.9296 26.093 17.3325 26.093 15.5943C26.093 13.2913 27.9195 11.4649 30.1695 11.4649C32.4459 11.4649 34.2459 13.2913 34.2459 15.5943C34.2459 17.8972 32.4459 19.7237 30.1695 19.7237C28.7886 19.7237 27.5709 19.0355 26.8342 17.9722C26.49 19.0774 25.9121 20.0877 25.1577 20.948C26.4922 22.095 28.2503 22.7943 30.1695 22.7943C34.3253 22.7943 37.6871 19.5649 37.6871 15.5943C37.6871 14.7847 37.5481 14.0105 37.2945 13.2869C36.8422 12.0031 36.0217 10.8781 34.954 10.031L34.9584 10.0355Z" fill="#151515"/>
</svg>
