<svg width="65" height="28" viewBox="0 0 65 28" fill="none" xmlns="http://www.w3.org/2000/svg">
    <path d="M10.2259 19.4059H4.85013V4.00006H1.2766V22.5295H13.12C11.9001 21.7442 10.9009 20.6699 10.2259 19.4059Z"
        fill="#151515" />
    <path
        d="M52.3229 11.8442V8.85303H63.2023V11.4207L56.5052 19.5471H63.3876V22.5383H52.1905V20.0501L58.9935 11.8442H52.3229Z"
        fill="#151515" />
    <path
        d="M44.8317 8.41187C43.1641 8.41187 41.6288 9.02069 40.4112 10.053V8.75598H36.97V11.4802C37.6935 12.6957 38.1104 14.1008 38.1104 15.5986C38.1104 17.0964 37.6935 18.5016 36.97 19.717V28.0001H40.4376V21.1972C41.6553 22.203 43.1641 22.8119 44.8317 22.8119C48.9082 22.8119 52.1376 19.5825 52.1376 15.6119C52.1376 11.6413 48.9082 8.41187 44.8317 8.41187ZM44.5406 19.7677C42.2376 19.7677 40.3847 17.9413 40.3847 15.6119C40.3847 13.2825 42.2376 11.4295 44.5406 11.4295C46.8435 11.4295 48.6964 13.3089 48.6964 15.6119C48.6964 17.9148 46.817 19.7677 44.5406 19.7677Z"
        fill="#151515" />
    <path
        d="M34.2348 10.0353C32.9355 9.0118 31.2701 8.39857 29.4524 8.39857C27.1318 8.39857 25.0473 9.41769 23.6642 11.0147C23.6598 11.0103 23.6554 11.0059 23.651 11.0015C22.5789 12.2478 21.9326 13.8427 21.9326 15.5809C21.9326 15.5809 21.9326 15.592 21.9326 15.5986C21.9326 17.9015 20.1326 19.728 17.8561 19.728C15.6061 19.728 13.7796 17.9015 13.7796 15.5986C13.7796 13.2956 15.6061 11.4692 17.8561 11.4692C19.2458 11.4692 20.4568 12.153 21.1892 13.2074C21.5333 12.1 22.1113 11.0875 22.8679 10.225C21.5377 9.0868 19.7819 8.39636 17.8561 8.39636C13.7267 8.39636 10.3385 11.6258 10.3385 15.5964C10.3385 19.5669 13.7267 22.7964 17.8561 22.7964C17.9951 22.7964 18.1341 22.792 18.2708 22.7853C18.3105 22.7853 18.3502 22.7787 18.3899 22.7765C18.487 22.7699 18.5818 22.7633 18.6767 22.7522C18.7252 22.7478 18.776 22.7412 18.8245 22.7346C18.9105 22.7236 18.9943 22.7125 19.0782 22.6993C19.1311 22.6905 19.1819 22.6817 19.2326 22.6728C19.3142 22.6574 19.3936 22.642 19.4752 22.6265C19.526 22.6155 19.5789 22.6045 19.6296 22.5934C19.7091 22.5758 19.7885 22.5559 19.8679 22.5339C19.9164 22.5206 19.9671 22.5074 20.0157 22.4942C20.0973 22.4699 20.1767 22.4456 20.2561 22.4192C20.3002 22.4037 20.3466 22.3905 20.3907 22.375C20.4789 22.3442 20.5649 22.3133 20.651 22.2802C20.6863 22.267 20.7216 22.2537 20.7568 22.2405C20.9995 22.1434 21.2333 22.0353 21.4627 21.914C21.4958 21.8964 21.5267 21.8787 21.5598 21.8611C21.6392 21.8169 21.7208 21.7728 21.798 21.7265C21.8377 21.7022 21.8774 21.678 21.9149 21.6537C21.9855 21.6118 22.0539 21.5677 22.1223 21.5214C22.1642 21.4949 22.2039 21.4662 22.2436 21.4375C22.3076 21.3934 22.3716 21.3471 22.4355 21.3008C22.4752 21.2721 22.5149 21.2412 22.5546 21.2103C22.6164 21.1618 22.6782 21.1133 22.7377 21.0647C22.7752 21.0339 22.8127 21.003 22.8502 20.9721C22.912 20.9192 22.9716 20.8662 23.0311 20.8111C23.0642 20.7802 23.0995 20.7493 23.1326 20.7184C23.1966 20.6567 23.2605 20.5949 23.3223 20.5309C23.3488 20.5044 23.3752 20.4802 23.3995 20.4537C23.4855 20.3633 23.5716 20.2706 23.6532 20.1736C24.7252 18.9295 25.3693 17.3324 25.3693 15.5942C25.3693 13.2912 27.1958 11.4647 29.4458 11.4647C31.7223 11.4647 33.5223 13.2912 33.5223 15.5942C33.5223 17.8971 31.7223 19.7236 29.4458 19.7236C28.0649 19.7236 26.8473 19.0353 26.1105 17.9721C25.7664 19.0772 25.1885 20.0875 24.4341 20.9478C25.7686 22.0949 27.5267 22.7942 29.4458 22.7942C33.6017 22.7942 36.9635 19.5647 36.9635 15.5942C36.9635 14.7846 36.8245 14.0103 36.5708 13.2868C36.1186 12.003 35.298 10.878 34.2304 10.0309L34.2348 10.0353Z"
        fill="#151515" />
</svg>