<svg width="18" height="18" viewBox="0 0 18 18" fill="none" xmlns="http://www.w3.org/2000/svg">
    <path fill-rule="evenodd" clip-rule="evenodd"
        d="M17.6399 9.20459C17.6399 8.5664 17.5827 7.95277 17.4763 7.36368H8.99994V10.845H13.8436C13.6349 11.97 13.0008 12.9232 12.0477 13.5614V15.8196H14.9563C16.6581 14.2528 17.6399 11.9455 17.6399 9.20459Z"
        fill="#4285F4" />
    <path fill-rule="evenodd" clip-rule="evenodd"
        d="M8.99991 18C11.4299 18 13.4672 17.1941 14.9563 15.8195L12.0476 13.5614C11.2417 14.1014 10.2108 14.4204 8.99991 14.4204C6.65582 14.4204 4.67173 12.8373 3.964 10.71H0.957184V13.0418C2.43809 15.9832 5.48173 18 8.99991 18Z"
        fill="#34A853" />
    <path fill-rule="evenodd" clip-rule="evenodd"
        d="M3.96403 10.71C3.78403 10.17 3.68176 9.59319 3.68176 9.00001C3.68176 8.40683 3.78403 7.83001 3.96403 7.29001V4.95819H0.957212C0.347666 6.17319 -6.10352e-05 7.54774 -6.10352e-05 9.00001C-6.10352e-05 10.4523 0.347666 11.8268 0.957212 13.0418L3.96403 10.71Z"
        fill="#FBBC05" />
    <path fill-rule="evenodd" clip-rule="evenodd"
        d="M8.99991 3.57955C10.3213 3.57955 11.5076 4.03364 12.4404 4.92545L15.0217 2.34409C13.4631 0.891818 11.4258 0 8.99991 0C5.48173 0 2.43809 2.01682 0.957184 4.95818L3.964 7.29C4.67173 5.16273 6.65582 3.57955 8.99991 3.57955Z"
        fill="#EA4335" />
</svg>