<svg width="133" height="57" viewBox="0 0 133 57" fill="none" xmlns="http://www.w3.org/2000/svg">
    <path d="M21.2662 39.5049H10.3494V8.14297H3.09235V45.8636H27.1435C24.6663 44.2649 22.637 42.078 21.2662 39.5049Z"
        fill="#151515" />
    <path
        d="M106.756 24.1114V18.0222H128.849V23.2492L115.249 39.7924H129.226V45.8816H106.487V40.8163L120.302 24.1114H106.756Z"
        fill="#151515" />
    <path
        d="M91.5429 17.1241C88.1563 17.1241 85.0385 18.3635 82.5657 20.4651V17.8246H75.5775V23.3705C77.0468 25.8448 77.8935 28.7052 77.8935 31.7543C77.8935 34.8034 77.0468 37.6639 75.5775 40.1382V57.0002H82.6195V43.1513C85.0922 45.199 88.1563 46.4384 91.5429 46.4384C99.8213 46.4384 106.379 39.8642 106.379 31.7813C106.379 23.6983 99.8213 17.1241 91.5429 17.1241ZM90.9516 40.2414C86.2749 40.2414 82.512 36.5233 82.512 31.7813C82.512 27.0392 86.2749 23.2672 90.9516 23.2672C95.6283 23.2672 99.3912 27.0931 99.3912 31.7813C99.3912 36.4694 95.5746 40.2414 90.9516 40.2414Z"
        fill="#151515" />
    <path
        d="M70.023 20.4291C67.3845 18.3455 64.0023 17.0971 60.3111 17.0971C55.5985 17.0971 51.3653 19.1718 48.5565 22.4229C48.5476 22.4139 48.5386 22.405 48.5297 22.396C46.3525 24.9331 45.04 28.1798 45.04 31.7184C45.04 31.7184 45.04 31.7408 45.04 31.7543C45.04 36.4424 41.3846 40.1606 36.7616 40.1606C32.1924 40.1606 28.4833 36.4424 28.4833 31.7543C28.4833 27.0662 32.1924 23.348 36.7616 23.348C39.5838 23.348 42.0431 24.7401 43.5304 26.8865C44.2292 24.6323 45.4029 22.5711 46.9394 20.8153C44.2382 18.4982 40.6724 17.0927 36.7616 17.0927C28.3758 17.0927 21.495 23.6668 21.495 31.7498C21.495 39.8328 28.3758 46.4069 36.7616 46.4069C37.0439 46.4069 37.3261 46.398 37.6038 46.3845C37.6845 46.3845 37.7651 46.371 37.8457 46.3665C38.0428 46.3531 38.2354 46.3396 38.4281 46.3171C38.5266 46.3081 38.6297 46.2947 38.7282 46.2812C38.9029 46.2587 39.0731 46.2363 39.2434 46.2093C39.3509 46.1914 39.4539 46.1734 39.5569 46.1555C39.7227 46.124 39.884 46.0926 40.0497 46.0612C40.1527 46.0387 40.2602 46.0163 40.3633 45.9938C40.5245 45.9579 40.6858 45.9175 40.8471 45.8726C40.9456 45.8456 41.0487 45.8187 41.1472 45.7917C41.313 45.7423 41.4742 45.6929 41.6355 45.6391C41.7251 45.6076 41.8192 45.5807 41.9087 45.5492C42.0879 45.4864 42.2626 45.4235 42.4373 45.3561C42.509 45.3292 42.5807 45.3023 42.6524 45.2753C43.1451 45.0777 43.62 44.8577 44.0859 44.6107C44.153 44.5748 44.2158 44.5389 44.283 44.5029C44.4442 44.4131 44.61 44.3233 44.7668 44.229C44.8474 44.1796 44.928 44.1302 45.0042 44.0808C45.1475 43.9955 45.2864 43.9057 45.4253 43.8114C45.5104 43.7575 45.591 43.6991 45.6716 43.6408C45.8016 43.5509 45.9315 43.4566 46.0614 43.3623C46.142 43.304 46.2226 43.2411 46.3033 43.1782C46.4287 43.0794 46.5541 42.9806 46.6751 42.8819C46.7512 42.819 46.8274 42.7561 46.9035 42.6933C47.029 42.5855 47.1499 42.4777 47.2709 42.3654C47.3381 42.3026 47.4097 42.2397 47.4769 42.1768C47.6068 42.0511 47.7368 41.9254 47.8622 41.7951C47.9159 41.7413 47.9697 41.6919 48.019 41.638C48.1937 41.4539 48.3684 41.2653 48.5341 41.0677C50.7112 38.535 52.0193 35.2839 52.0193 31.7453C52.0193 27.0572 55.7284 23.339 60.2977 23.339C64.9206 23.339 68.576 27.0572 68.576 31.7453C68.576 36.4334 64.9206 40.1516 60.2977 40.1516C57.4934 40.1516 55.0206 38.7506 53.5245 36.5861C52.8256 38.8359 51.652 40.8925 50.1199 42.6439C52.8301 44.9789 56.4004 46.4024 60.2977 46.4024C68.7373 46.4024 75.5643 39.8283 75.5643 31.7453C75.5643 30.0973 75.2821 28.5211 74.7669 27.0482C73.8486 24.4347 72.1821 22.1445 70.014 20.4201L70.023 20.4291Z"
        fill="#151515" />
</svg>